<svg viewBox="0 0 1200 750" xmlns="http://www.w3.org/2000/svg" role="img" aria-label="Placeholder dashboard 3: B2B Founder 30 day performance">
  <defs>
    <linearGradient id="bg3" x1="0" y1="0" x2="1" y2="1">
      <stop offset="0" stop-color="#1A1A2E"/>
      <stop offset="1" stop-color="#0E0E1A"/>
    </linearGradient>
    <linearGradient id="purple3" x1="0" y1="0" x2="1" y2="1">
      <stop offset="0" stop-color="#7C5CFF"/>
      <stop offset="1" stop-color="#5B3FE0"/>
    </linearGradient>
  </defs>
  <rect width="1200" height="750" fill="url(#bg3)"/>
  <rect x="0" y="0" width="1200" height="60" fill="#13131F"/>
  <rect x="24" y="20" width="120" height="20" rx="4" fill="#7C5CFF" opacity="0.35"/>
  <circle cx="1160" cy="30" r="11" fill="#7C5CFF" opacity="0.4"/>
  <rect x="0" y="60" width="240" height="690" fill="#13131F"/>
  <rect x="24" y="100" width="180" height="14" rx="4" fill="#FFFFFF" opacity="0.6"/>
  <rect x="24" y="140" width="160" height="10" rx="4" fill="#FFFFFF" opacity="0.18"/>
  <rect x="24" y="170" width="180" height="10" rx="4" fill="#FFFFFF" opacity="0.18"/>
  <rect x="24" y="200" width="140" height="10" rx="4" fill="#FFFFFF" opacity="0.18"/>
  <text x="280" y="115" fill="#FFFFFF" font-family="Inter,Arial,sans-serif" font-size="28" font-weight="700">B2B Founder</text>
  <text x="280" y="143" fill="#C4C4D0" font-family="Inter,Arial,sans-serif" font-size="14">30 day performance overview</text>
  <g transform="translate(280, 180)">
    <rect width="280" height="120" rx="12" fill="#1A1A2E" stroke="#7C5CFF" stroke-opacity="0.3"/>
    <text x="20" y="40" fill="#7C5CFF" font-family="Inter,Arial,sans-serif" font-size="11" font-weight="600" letter-spacing="2">INVITES SENT</text>
    <text x="20" y="85" fill="#FFFFFF" font-family="Inter,Arial,sans-serif" font-size="42" font-weight="700">366</text>
  </g>
  <g transform="translate(580, 180)">
    <rect width="280" height="120" rx="12" fill="#1A1A2E" stroke="#7C5CFF" stroke-opacity="0.3"/>
    <text x="20" y="40" fill="#7C5CFF" font-family="Inter,Arial,sans-serif" font-size="11" font-weight="600" letter-spacing="2">ACCEPTED</text>
    <text x="20" y="85" fill="#FFFFFF" font-family="Inter,Arial,sans-serif" font-size="42" font-weight="700">113</text>
    <text x="200" y="85" fill="#7C5CFF" font-family="Inter,Arial,sans-serif" font-size="18" font-weight="600">31%</text>
  </g>
  <g transform="translate(880, 180)">
    <rect width="280" height="120" rx="12" fill="#1A1A2E" stroke="#7C5CFF" stroke-opacity="0.3"/>
    <text x="20" y="40" fill="#7C5CFF" font-family="Inter,Arial,sans-serif" font-size="11" font-weight="600" letter-spacing="2">REPLIES</text>
    <text x="20" y="85" fill="#FFFFFF" font-family="Inter,Arial,sans-serif" font-size="42" font-weight="700">25</text>
  </g>
  <rect x="280" y="340" width="430" height="340" rx="12" fill="#1A1A2E" stroke="#7C5CFF" stroke-opacity="0.2"/>
  <text x="300" y="375" fill="#FFFFFF" font-family="Inter,Arial,sans-serif" font-size="14" font-weight="600">Acceptance funnel</text>
  <g transform="translate(495, 510)">
    <circle r="100" fill="none" stroke="#1A1A2E" stroke-width="22"/>
    <circle r="100" fill="none" stroke="url(#purple3)" stroke-width="22" stroke-dasharray="195 628" stroke-linecap="round" transform="rotate(-90)"/>
    <text x="0" y="-6" fill="#FFFFFF" font-family="Inter,Arial,sans-serif" font-size="32" font-weight="700" text-anchor="middle">31%</text>
    <text x="0" y="20" fill="#C4C4D0" font-family="Inter,Arial,sans-serif" font-size="12" text-anchor="middle">accepted</text>
  </g>
  <rect x="730" y="340" width="430" height="340" rx="12" fill="#1A1A2E" stroke="#7C5CFF" stroke-opacity="0.2"/>
  <text x="750" y="375" fill="#FFFFFF" font-family="Inter,Arial,sans-serif" font-size="14" font-weight="600">Daily sends</text>
  <g transform="translate(770, 430)">
    <rect x="0" y="160" width="32" height="60" fill="url(#purple3)" opacity="0.55" rx="3"/>
    <rect x="50" y="100" width="32" height="120" fill="url(#purple3)" opacity="0.7" rx="3"/>
    <rect x="100" y="80" width="32" height="140" fill="url(#purple3)" opacity="0.85" rx="3"/>
    <rect x="150" y="120" width="32" height="100" fill="url(#purple3)" opacity="0.7" rx="3"/>
    <rect x="200" y="60" width="32" height="160" fill="url(#purple3)" opacity="1" rx="3"/>
    <rect x="250" y="90" width="32" height="130" fill="url(#purple3)" opacity="0.85" rx="3"/>
    <rect x="300" y="100" width="32" height="120" fill="url(#purple3)" opacity="0.78" rx="3"/>
    <rect x="350" y="70" width="32" height="150" fill="url(#purple3)" opacity="0.95" rx="3"/>
  </g>
  <text x="600" y="725" fill="#FFFFFF" font-family="Inter,Arial,sans-serif" font-size="11" opacity="0.45" text-anchor="middle">PLACEHOLDER · Replace with anonymized dashboard at /public/images/dashboards/dashboard-3.png</text>
</svg>
