<svg viewBox="0 0 1200 750" xmlns="http://www.w3.org/2000/svg" role="img" aria-label="Placeholder dashboard 1: Executive Coach 30 day performance">
  <defs>
    <linearGradient id="bg1" x1="0" y1="0" x2="1" y2="1">
      <stop offset="0" stop-color="#1A1A2E"/>
      <stop offset="1" stop-color="#0E0E1A"/>
    </linearGradient>
    <linearGradient id="purple1" x1="0" y1="0" x2="1" y2="0">
      <stop offset="0" stop-color="#7C5CFF"/>
      <stop offset="1" stop-color="#5B3FE0"/>
    </linearGradient>
  </defs>
  <rect width="1200" height="750" fill="url(#bg1)"/>
  <rect x="0" y="0" width="1200" height="60" fill="#13131F"/>
  <rect x="24" y="20" width="120" height="20" rx="4" fill="#7C5CFF" opacity="0.35"/>
  <circle cx="1160" cy="30" r="11" fill="#7C5CFF" opacity="0.4"/>
  <rect x="0" y="60" width="240" height="690" fill="#13131F"/>
  <rect x="24" y="100" width="180" height="14" rx="4" fill="#FFFFFF" opacity="0.6"/>
  <rect x="24" y="140" width="160" height="10" rx="4" fill="#FFFFFF" opacity="0.18"/>
  <rect x="24" y="170" width="180" height="10" rx="4" fill="#FFFFFF" opacity="0.18"/>
  <rect x="24" y="200" width="140" height="10" rx="4" fill="#FFFFFF" opacity="0.18"/>
  <rect x="24" y="230" width="180" height="10" rx="4" fill="#FFFFFF" opacity="0.18"/>
  <rect x="24" y="260" width="120" height="10" rx="4" fill="#FFFFFF" opacity="0.18"/>
  <text x="280" y="115" fill="#FFFFFF" font-family="Inter,Arial,sans-serif" font-size="28" font-weight="700">Executive Coach</text>
  <text x="280" y="143" fill="#C4C4D0" font-family="Inter,Arial,sans-serif" font-size="14">30 day performance overview</text>
  <g transform="translate(280, 180)">
    <rect width="280" height="120" rx="12" fill="#1A1A2E" stroke="#7C5CFF" stroke-opacity="0.3"/>
    <text x="20" y="40" fill="#7C5CFF" font-family="Inter,Arial,sans-serif" font-size="11" font-weight="600" letter-spacing="2">INVITES SENT</text>
    <text x="20" y="85" fill="#FFFFFF" font-family="Inter,Arial,sans-serif" font-size="42" font-weight="700">335</text>
  </g>
  <g transform="translate(580, 180)">
    <rect width="280" height="120" rx="12" fill="#1A1A2E" stroke="#7C5CFF" stroke-opacity="0.3"/>
    <text x="20" y="40" fill="#7C5CFF" font-family="Inter,Arial,sans-serif" font-size="11" font-weight="600" letter-spacing="2">ACCEPTED</text>
    <text x="20" y="85" fill="#FFFFFF" font-family="Inter,Arial,sans-serif" font-size="42" font-weight="700">119</text>
    <text x="200" y="85" fill="#7C5CFF" font-family="Inter,Arial,sans-serif" font-size="18" font-weight="600">35%</text>
  </g>
  <g transform="translate(880, 180)">
    <rect width="280" height="120" rx="12" fill="#1A1A2E" stroke="#7C5CFF" stroke-opacity="0.3"/>
    <text x="20" y="40" fill="#7C5CFF" font-family="Inter,Arial,sans-serif" font-size="11" font-weight="600" letter-spacing="2">REPLIES</text>
    <text x="20" y="85" fill="#FFFFFF" font-family="Inter,Arial,sans-serif" font-size="42" font-weight="700">25</text>
  </g>
  <rect x="280" y="340" width="880" height="340" rx="12" fill="#1A1A2E" stroke="#7C5CFF" stroke-opacity="0.2"/>
  <text x="300" y="375" fill="#FFFFFF" font-family="Inter,Arial,sans-serif" font-size="14" font-weight="600">Weekly activity</text>
  <g transform="translate(320, 420)">
    <rect x="0" y="160" width="48" height="60" fill="url(#purple1)" opacity="0.55" rx="4"/>
    <rect x="80" y="120" width="48" height="100" fill="url(#purple1)" opacity="0.65" rx="4"/>
    <rect x="160" y="80" width="48" height="140" fill="url(#purple1)" opacity="0.85" rx="4"/>
    <rect x="240" y="100" width="48" height="120" fill="url(#purple1)" opacity="0.78" rx="4"/>
    <rect x="320" y="60" width="48" height="160" fill="url(#purple1)" opacity="1" rx="4"/>
    <rect x="400" y="90" width="48" height="130" fill="url(#purple1)" opacity="0.85" rx="4"/>
    <rect x="480" y="70" width="48" height="150" fill="url(#purple1)" opacity="0.92" rx="4"/>
    <rect x="560" y="80" width="48" height="140" fill="url(#purple1)" opacity="0.85" rx="4"/>
    <rect x="640" y="60" width="48" height="160" fill="url(#purple1)" opacity="1" rx="4"/>
    <rect x="720" y="100" width="48" height="120" fill="url(#purple1)" opacity="0.7" rx="4"/>
  </g>
  <text x="600" y="725" fill="#FFFFFF" font-family="Inter,Arial,sans-serif" font-size="11" opacity="0.45" text-anchor="middle">PLACEHOLDER · Replace with anonymized dashboard at /public/images/dashboards/dashboard-1.png</text>
</svg>
