<svg viewBox="0 0 1200 750" xmlns="http://www.w3.org/2000/svg" role="img" aria-label="Placeholder dashboard 2: Leadership Consultant 4 month performance">
  <defs>
    <linearGradient id="bg2" x1="0" y1="0" x2="1" y2="1">
      <stop offset="0" stop-color="#1A1A2E"/>
      <stop offset="1" stop-color="#0E0E1A"/>
    </linearGradient>
    <linearGradient id="line2" x1="0" y1="0" x2="1" y2="0">
      <stop offset="0" stop-color="#7C5CFF"/>
      <stop offset="1" stop-color="#8B7AFF"/>
    </linearGradient>
    <linearGradient id="fill2" x1="0" y1="0" x2="0" y2="1">
      <stop offset="0" stop-color="#7C5CFF" stop-opacity="0.4"/>
      <stop offset="1" stop-color="#7C5CFF" stop-opacity="0"/>
    </linearGradient>
  </defs>
  <rect width="1200" height="750" fill="url(#bg2)"/>
  <rect x="0" y="0" width="1200" height="60" fill="#13131F"/>
  <rect x="24" y="20" width="120" height="20" rx="4" fill="#7C5CFF" opacity="0.35"/>
  <circle cx="1160" cy="30" r="11" fill="#7C5CFF" opacity="0.4"/>
  <rect x="0" y="60" width="240" height="690" fill="#13131F"/>
  <rect x="24" y="100" width="180" height="14" rx="4" fill="#FFFFFF" opacity="0.6"/>
  <rect x="24" y="140" width="160" height="10" rx="4" fill="#FFFFFF" opacity="0.18"/>
  <rect x="24" y="170" width="180" height="10" rx="4" fill="#FFFFFF" opacity="0.18"/>
  <rect x="24" y="200" width="140" height="10" rx="4" fill="#FFFFFF" opacity="0.18"/>
  <rect x="24" y="230" width="180" height="10" rx="4" fill="#FFFFFF" opacity="0.18"/>
  <text x="280" y="115" fill="#FFFFFF" font-family="Inter,Arial,sans-serif" font-size="28" font-weight="700">Leadership Consultant</text>
  <text x="280" y="143" fill="#C4C4D0" font-family="Inter,Arial,sans-serif" font-size="14">4 month performance overview</text>
  <g transform="translate(280, 180)">
    <rect width="280" height="120" rx="12" fill="#1A1A2E" stroke="#7C5CFF" stroke-opacity="0.3"/>
    <text x="20" y="40" fill="#7C5CFF" font-family="Inter,Arial,sans-serif" font-size="11" font-weight="600" letter-spacing="2">INVITES SENT</text>
    <text x="20" y="85" fill="#FFFFFF" font-family="Inter,Arial,sans-serif" font-size="38" font-weight="700">1,235</text>
  </g>
  <g transform="translate(580, 180)">
    <rect width="280" height="120" rx="12" fill="#1A1A2E" stroke="#7C5CFF" stroke-opacity="0.3"/>
    <text x="20" y="40" fill="#7C5CFF" font-family="Inter,Arial,sans-serif" font-size="11" font-weight="600" letter-spacing="2">ACCEPTED</text>
    <text x="20" y="85" fill="#FFFFFF" font-family="Inter,Arial,sans-serif" font-size="38" font-weight="700">422</text>
    <text x="180" y="85" fill="#7C5CFF" font-family="Inter,Arial,sans-serif" font-size="18" font-weight="600">34%</text>
  </g>
  <g transform="translate(880, 180)">
    <rect width="280" height="120" rx="12" fill="#1A1A2E" stroke="#7C5CFF" stroke-opacity="0.3"/>
    <text x="20" y="40" fill="#7C5CFF" font-family="Inter,Arial,sans-serif" font-size="11" font-weight="600" letter-spacing="2">REPLIES</text>
    <text x="20" y="85" fill="#FFFFFF" font-family="Inter,Arial,sans-serif" font-size="38" font-weight="700">121</text>
  </g>
  <rect x="280" y="340" width="880" height="340" rx="12" fill="#1A1A2E" stroke="#7C5CFF" stroke-opacity="0.2"/>
  <text x="300" y="375" fill="#FFFFFF" font-family="Inter,Arial,sans-serif" font-size="14" font-weight="600">Cumulative growth</text>
  <g transform="translate(320, 410)">
    <path d="M 0 220 L 100 200 L 200 170 L 300 130 L 400 100 L 500 75 L 600 50 L 700 30 L 800 15 L 800 250 L 0 250 Z" fill="url(#fill2)"/>
    <path d="M 0 220 L 100 200 L 200 170 L 300 130 L 400 100 L 500 75 L 600 50 L 700 30 L 800 15" fill="none" stroke="url(#line2)" stroke-width="3" stroke-linecap="round"/>
    <circle cx="100" cy="200" r="4" fill="#7C5CFF"/>
    <circle cx="200" cy="170" r="4" fill="#7C5CFF"/>
    <circle cx="300" cy="130" r="4" fill="#7C5CFF"/>
    <circle cx="400" cy="100" r="4" fill="#7C5CFF"/>
    <circle cx="500" cy="75" r="4" fill="#7C5CFF"/>
    <circle cx="600" cy="50" r="5" fill="#FFFFFF" stroke="#7C5CFF" stroke-width="2"/>
    <circle cx="700" cy="30" r="5" fill="#FFFFFF" stroke="#7C5CFF" stroke-width="2"/>
    <circle cx="800" cy="15" r="5" fill="#FFFFFF" stroke="#7C5CFF" stroke-width="2"/>
  </g>
  <text x="600" y="725" fill="#FFFFFF" font-family="Inter,Arial,sans-serif" font-size="11" opacity="0.45" text-anchor="middle">PLACEHOLDER · Replace with anonymized dashboard at /public/images/dashboards/dashboard-2.png</text>
</svg>
