<svg width="100" height="100" viewBox="0 0 100 100" xmlns="http://www.w3.org/2000/svg">
  <defs>
    <linearGradient id="cal-header" x1="0" y1="0" x2="1" y2="1">
      <stop offset="0" stop-color="#8B7AFF"/>
      <stop offset="1" stop-color="#7C5CFF"/>
    </linearGradient>
  </defs>

  <g transform="translate(50,50) scale(1.32) translate(-50,-50)">
    <rect x="34" y="20" width="6" height="16" rx="3" fill="#8B7AFF"/>
    <rect x="62" y="20" width="6" height="16" rx="3" fill="#8B7AFF"/>

    <rect x="14" y="26" width="72" height="60" rx="12" fill="#1A1A2E" stroke="#7C5CFF" stroke-width="3"/>

    <path d="M14 48 L14 38 Q14 26 26 26 L74 26 Q86 26 86 38 L86 48 Z" fill="url(#cal-header)"/>

    <circle cx="32" cy="37" r="2.5" fill="#FFFFFF" opacity="0.85"/>
    <circle cx="50" cy="37" r="2.5" fill="#FFFFFF" opacity="0.85"/>
    <circle cx="68" cy="37" r="2.5" fill="#FFFFFF" opacity="0.85"/>

    <g fill="#7C5CFF" opacity="0.35">
      <rect x="24" y="56" width="8" height="8" rx="2"/>
      <rect x="37" y="56" width="8" height="8" rx="2"/>
      <rect x="63" y="56" width="8" height="8" rx="2"/>
      <rect x="24" y="69" width="8" height="8" rx="2"/>
      <rect x="63" y="69" width="8" height="8" rx="2"/>
    </g>

    <rect x="44" y="55" width="13" height="13" rx="3" fill="#10B981"/>
    <path d="M47 61.5 L49.5 64 L54 59" fill="none" stroke="#FFFFFF" stroke-width="2.2" stroke-linecap="round" stroke-linejoin="round"/>
  </g>
</svg>
